<svg width="32" height="32" viewBox="0 0 63 64" fill="none" xmlns="http://www.w3.org/2000/svg" aria-hidden="true">
  <path d="M21.1169 24.0617C21.3396 22.0449 22.0591 19.7932 22.3534 18.8227C22.643 17.8676 23.0959 16.8207 23.4327 15.944C23.9848 14.5066 24.354 13.1382 24.738 11.9381C25.0929 10.8291 25.7498 9.48532 26.2877 7.8742C27.2483 4.99739 28.0905 2.78166 28.2478 2.1526C28.3605 1.70173 28.5846 1.33996 28.9437 1.06997C29.1058 0.94807 29.3028 0.978179 29.5059 1.22319C30.517 2.44255 30.7445 3.13534 30.9928 3.81029C31.2677 4.55726 31.5112 5.2493 31.7798 5.99242C32.0971 6.87005 32.3644 7.76823 32.7248 8.89338C33.0123 9.79079 33.5307 11.7613 33.8506 13.3481C34.1215 14.6917 34.5215 16.4887 34.8853 17.9162C35.0742 18.6572 35.2451 19.4693 35.515 20.3906C35.7777 21.2867 35.92 22.0341 36.1002 22.7988C36.2539 23.4509 36.5059 24.1481 36.6625 24.7346C36.7016 24.881 36.8191 25.0039 40.941 25.0727C45.063 25.1416 53.2151 25.1416 57.3924 25.2084C61.5697 25.2752 61.5251 25.4089 61.4131 25.5223C60.9082 26.0332 58.7524 26.8884 55.9082 28.1748C54.4819 28.82 53.5175 29.2345 52.5071 29.6395C51.1955 30.1652 50.4154 30.5844 49.625 30.9449C48.9109 31.2705 47.8505 31.7535 47.0602 32.2496C46.4751 32.6168 45.5989 32.7443 44.9901 32.9927C44.3271 33.2632 43.6199 33.4651 42.9652 33.7797C42.1674 34.1629 41.2792 34.5451 40.6704 34.7476C39.9909 34.9735 39.3002 35.22 38.6678 35.4002C38.5302 35.4394 38.3985 35.49 38.3073 35.5798C38.1211 35.7632 38.1703 36.1636 38.3046 36.6125C38.5882 37.5601 39.5162 38.4544 40.1257 39.5586C40.9625 41.0748 41.5869 41.8319 41.9946 42.6871C42.3712 43.477 42.8019 45.3309 43.4782 47.3868C43.8019 48.3707 44.1977 49.5237 44.604 50.584C44.8853 51.3181 45.4126 52.1803 45.8412 53.1712C46.1746 53.9419 46.6275 54.6102 46.9218 55.3769C47.3014 56.366 48.1097 58.5168 48.6315 59.6744C48.8776 60.2205 49.0142 60.8657 49.106 61.6317C49.3032 63.2776 45.3748 60.9169 43.8696 60.2872C42.0243 59.5151 41.4142 58.8462 40.7163 58.531C39.4585 57.9629 39.1166 57.1372 38.7798 56.5743C38.3469 55.8507 37.8585 55.1582 37.4751 54.4603C36.8043 53.2392 36.2386 52.6825 35.4293 51.56C34.5421 50.3294 34.2137 49.6236 33.7176 48.9027C33.2811 48.2684 33.0879 47.5528 32.7275 46.7881C32.3841 46.0596 32.0971 45.258 31.8048 44.6053C31.5365 44.006 31.2871 43.3681 31.0846 42.8275C31.0315 42.6856 30.928 42.5582 30.7708 42.5561C29.9412 42.5454 29.8022 43.6327 29.5329 44.3745C29.0366 45.7416 28.3173 46.8698 27.936 47.8599C27.0835 50.0732 26.7433 50.9222 26.3168 51.8199C25.3458 53.8631 24.6294 54.432 24.1333 55.0847C23.6221 55.7572 23.0986 56.8159 22.6038 57.5145C22.1502 58.155 21.7486 58.7517 21.3659 59.2701C20.9463 59.8385 20.1747 60.1475 19.522 60.5079C19.3621 60.5962 19.2297 60.6875 19.094 60.7779C18.9584 60.8683 18.8247 60.9574 18.7559 59.6224C18.6871 58.2873 18.6871 55.5254 18.7316 54.0135C18.8046 51.5356 19.5402 49.9395 19.8109 48.815C20.1817 47.2741 20.396 46.2947 20.5763 45.6177C20.7877 44.8235 20.801 44.178 20.959 43.3465C21.132 42.4356 21.1169 41.3486 21.341 39.9076C21.4308 39.3302 21.3869 38.3896 21.2978 37.8854C21.2087 37.3812 21.0305 37.3367 18.9786 37.3137C16.9268 37.2908 13.0066 37.2908 10.8535 37.2463C8.42996 37.1961 6.91042 37.0208 4.93145 36.9985C4.01922 36.9883 2.85799 36.8858 1.39536 36.819C0.908671 36.7968 0.957314 36.6185 1.09163 36.4383C1.93007 35.3134 3.51945 34.6396 4.21803 34.1651C4.85107 33.7351 5.40932 33.1979 6.15245 32.6808C6.99337 32.0958 8.10375 31.2216 9.41316 30.4764C10.6422 29.777 11.3921 29.2399 12.2945 28.7877C12.8901 28.4892 13.4197 28.1141 14.2951 27.5741C15.9964 26.5247 16.7486 26.3133 17.6935 25.7511C18.3991 25.3313 19.1784 25.1875 19.765 24.8952C19.9006 24.8271 20.0343 24.7825 20.1699 24.6927C20.3056 24.603 20.4392 24.4693 20.8469 24.1967" stroke="#D3968C" stroke-width="4" stroke-linecap="round"/>
  <path d="M25.1621 25.813C25.1621 25.8541 25.1827 25.9577 25.2447 26.0927C25.3557 26.3342 25.7222 26.3119 25.9299 26.2811C26.2305 26.2364 26.16 25.6901 26.1292 25.3992C26.1126 25.2434 25.9112 25.2311 25.7662 25.1999C25.6829 25.1893 25.58 25.1893 25.527 25.3231C25.474 25.4569 25.474 25.7244 25.474 26.0001" stroke="#D3968C" stroke-width="3" stroke-linecap="round"/>
  <path d="M31.0874 25.2517C31.0874 25.3964 31.0462 25.687 31.0559 26.175C31.0588 26.3232 31.2945 26.3325 31.5015 26.3637C31.6253 26.3824 31.7909 26.3743 31.8758 26.2097C32.1053 25.7641 31.9194 25.3147 31.8262 25.2108C31.7394 25.1141 31.5458 25.1269 31.3693 25.1681C31.1916 25.4381 31.1292 25.6253 31.098 25.7703C31.0874 25.8535 31.0874 25.9564 31.0874 26.0625" stroke="#D3968C" stroke-width="3" stroke-linecap="round"/>
  <path d="M24.3513 31.8005C24.3925 32.0699 24.5584 32.4018 24.7558 32.7451C24.9985 33.1672 25.3679 33.3997 25.7216 33.7221C26.4901 34.4229 27.1966 34.5024 27.5933 34.6483C27.7503 34.7061 28.1116 34.7519 28.8155 34.8766C29.8336 35.057 30.7106 34.8367 31.1774 34.6708C31.9678 34.3899 32.437 33.8612 32.7391 33.5478C32.9431 33.3363 32.9372 32.9456 33.0825 32.6229C33.2011 32.3593 33.249 32.1136 33.3323 31.8638C33.4156 31.614 33.4779 31.4063 33.5194 31.2507C33.5403 31.1774 33.5609 31.1157 33.5821 30.9897" stroke="#D3968C" stroke-width="3" stroke-linecap="round"/>
</svg>
